<svg height="512" viewBox="0 0 512 512" width="512" xmlns="http://www.w3.org/2000/svg"><g id="filled_outline" data-name="filled outline"><path d="m24 24v32h56v432h32v-464z" fill="#e0edff"/><path d="m112 168h376v232h-376z" fill="#02c26a"/><g fill="#718799"><path d="m112 288h112v80h-112z"/><path d="m296 272h56v80h-56z"/><path d="m112 216h40v40h-40z"/></g><path d="m168 400h64v40h-64z" fill="#ffc431"/><path d="m424 400h64v40h-64z" fill="#ffc431"/><path d="m264 400h128v40h-128z" fill="#ffc431"/><path d="m400.804 368 8-32h32l8 32z" fill="#718799"/><path d="m488.00012 160h-368v-136a8.00039 8.00039 0 0 0 -8-8h-88a8.00039 8.00039 0 0 0 -8 8v32a8.00039 8.00039 0 0 0 8 8h48v424a8.00039 8.00039 0 0 0 8 8h32a8.00039 8.00039 0 0 0 8-8v-80h40v32a8.00039 8.00039 0 0 0 8 8h64a8.00039 8.00039 0 0 0 8-8v-32h16v32a8.00039 8.00039 0 0 0 8 8h128a8.00039 8.00039 0 0 0 8-8v-32h16v32a8.00039 8.00039 0 0 0 8 8h64a8.00039 8.00039 0 0 0 8-8v-272a8.00039 8.00039 0 0 0 -8-8zm-312 200h-56v-64h56zm-56-136h24v24h-24zm-16 256h-16v-424a8.00039 8.00039 0 0 0 -8-8h-48v-16h72zm16-104h104a8.00039 8.00039 0 0 0 8-8v-8h16v-16h-16v-8h16v-16h-16v-8h16v-16h-16v-8a8.00039 8.00039 0 0 0 -8-8h-104v-16h32a8.00039 8.00039 0 0 0 8-8v-40a8.00039 8.00039 0 0 0 -8-8h-32v-32h360v216h-360zm96-80v64h-24v-64zm104 112v24h-16v-24zm16 0h16v24h-16zm-160 0h16v24h-16zm48 24h-16v-24h16zm48-24h16v24h-16zm112 24h-16v-24h16zm48-24h16v24h-16zm48 24h-16v-24h16z"/><path d="m272.00012 280v16h16v8h-16v16h16v8h-16v16h16v8a8.00039 8.00039 0 0 0 8 8h8v16h16v-16h8v16h16v-16h8a8.00039 8.00039 0 0 0 8-8v-8h16v-16h-16v-8h16v-16h-16v-8h16v-16h-16v-8a8.00039 8.00039 0 0 0 -8-8h-8v-16h-16v16h-8v-16h-16v16h-8a8.00039 8.00039 0 0 0 -8 8v8zm32 0h40v64h-40z"/><path d="m216.00012 208h-32a8.00039 8.00039 0 0 0 -8 8v40a8.00039 8.00039 0 0 0 8 8h32a8.00039 8.00039 0 0 0 8-8v-40a8.00039 8.00039 0 0 0 -8-8zm-8 40h-16v-24h16z"/><path d="m240 248h32v16h-32z"/><path d="m240 224h32v16h-32z"/><path d="m264 192h16v16h-16z"/><path d="m296 192h16v16h-16z"/><path d="m328 192h16v16h-16z"/><path d="m448.56458 334.05957a7.99867 7.99867 0 0 0 -7.76075-6.05957h-8v-40h-16v40h-8a7.99866 7.99866 0 0 0 -7.76074 6.05957l-8 32a8 8 0 0 0 7.76074 9.94043h48a8 8 0 0 0 7.76075-9.94043zm-37.51465 25.94043 4-16h19.50781l4 16z"/><path d="m447.02942 233.37207a32.03851 32.03851 0 0 0 -45.25488 0l11.31446 11.31445a16.019 16.019 0 0 1 22.62793 0z"/><path d="m424.40247 208a47.68527 47.68527 0 0 1 33.94043 14.05859l11.31445-11.3125a64.00023 64.00023 0 0 0 -90.51074-.001l11.31445 11.31445a47.68607 47.68607 0 0 1 33.94141-14.05954z"/><circle cx="424.402" cy="264" r="8"/></g></svg>