<svg height="512pt" viewBox="0 0 512 512.0087" width="512pt" xmlns="http://www.w3.org/2000/svg"><path d="m233.445312 412.121094c-4.015624.003906-7.492187-2.792969-8.34375-6.71875-.855468-3.925782 1.144532-7.914063 4.796876-9.582032l62.113281-28.328124c4.273437-1.871094 9.253906.03125 11.191406 4.273437 1.933594 4.242187.105469 9.253906-4.109375 11.25l-62.109375 28.332031c-1.113281.507813-2.316406.773438-3.539063.773438zm0 0"/><path d="m124.75 461.695312c-4.015625.003907-7.492188-2.792968-8.347656-6.71875-.851563-3.925781 1.148437-7.914062 4.800781-9.578124l69.878906-31.871094c4.273438-1.875 9.253907.03125 11.191407 4.273437 1.933593 4.242188.105468 9.253907-4.105469 11.25l-69.882813 31.871094c-1.109375.507813-2.3125.773437-3.535156.773437zm0 0"/><path d="m138.925781 484.179688-38.824219 17.75c-8.578124 3.902343-18.695312.125-22.613281-8.445313l-7.339843-16.042969-6.828126-15.019531c-.253906-.511719-.425781-1.109375-.679687-1.621094-2.792969-8.304687 1.152344-17.371093 9.128906-20.992187l32.683594-14.847656 6.144531-2.816407zm0 0" fill="#bb193b"/><path d="m119.8125 458.582031-38.828125 17.75c-3.394531 1.542969-7.199219 1.929688-10.835937 1.109375l-6.828126-15.019531c-.253906-.511719-.425781-1.109375-.679687-1.621094-2.792969-8.304687 1.152344-17.371093 9.128906-20.992187l32.683594-14.847656zm0 0" fill="#ef314c"/><path d="m309.679688 406.273438-119.46875 54.527343-51.285157 23.378907-28.328125-62.035157 2.984375-1.367187 167.765625-76.542969 14.335938 31.488281zm0 0" fill="#fec108"/><path d="m295.683594 375.722656-116.480469 53.164063-51.285156 23.378906-14.335938-31.488281 167.765625-76.542969zm0 0" fill="#ffdc00"/><path d="m503.472656 92.332031v1.535157c-.890625 23.984374-20.714844 42.902343-44.714844 42.667968h-49.152343c-4.707031.011719-8.519531 3.824219-8.535157 8.53125v315.734375h-210.859374l119.46875-54.527343 47.019531-47.359376c1.730469-1.609374 2.71875-3.867187 2.730469-6.230468.007812-1.238282-.253907-2.460938-.769532-3.585938l-1.960937-4.351562c-1.5625-3.328125-5.046875-5.308594-8.707031-4.949219l-20.136719 1.367187-46.507813 3.070313-170.75 77.910156-38.828125 17.664063c-7.976562 3.621094-11.921875 12.6875-9.128906 20.992187h-9.386719c-5.785156-.027343-11.515625-1.128906-16.898437-3.242187-16.375-6.328125-27.34375-21.875-27.816407-39.425782v-1.535156c.78125-22.980468 19.671876-41.191406 42.664063-41.128906h51.203125c4.707031-.015625 8.519531-3.828125 8.53125-8.535156v-315.734375h349.867188c22.996093-.058594 41.882812 18.148437 42.667968 41.132812zm0 0" fill="#283593"/><path d="m477.871094 92.332031v1.535157c-.886719 23.984374-20.714844 42.902343-44.714844 42.667968h-49.152344c-4.707031.011719-8.519531 3.824219-8.53125 8.53125v315.734375h-185.261718l119.46875-54.527343 47.019531-47.359376c1.730469-1.609374 2.71875-3.867187 2.730469-6.230468.007812-1.238282-.253907-2.460938-.769532-3.585938l-1.960937-4.351562c-1.5625-3.328125-5.046875-5.308594-8.707031-4.949219l-20.136719 1.367187c-1.535157-1.023437-3.5 0-5.460938.167969l-66.644531 8.535157-170.414062 76.800781-25.597657 34.132812c-7.082031 3.15625-24.40625-10.496093-23.382812-3.242187-16.375-6.328125-27.34375-21.875-27.816407-39.425782v-1.535156c.78125-22.980468 19.671876-41.191406 42.664063-41.128906h51.203125c4.707031-.015625 8.519531-3.828125 8.53125-8.535156v-315.734375h324.265625c22.996094-.058594 41.882813 18.148437 42.667969 41.132812zm0 0" fill="#3f51b5"/><path d="m503.472656 93.867188v366.933593c-.011718 23.558594-19.109375 42.65625-42.667968 42.667969h-51.199219c-4.707031-.015625-8.519531-3.828125-8.535157-8.535156v-349.867188c.015626-4.707031 3.828126-8.519531 8.535157-8.53125h49.152343c6.605469-.015625 13.128907-1.472656 19.113282-4.269531 15.246094-6.761719 25.21875-21.722656 25.601562-38.398437zm0 0" fill="#0377bc"/><path d="m477.871094 132.265625v328.535156c-.007813 23.558594-19.105469 42.65625-42.667969 42.667969h-25.597656c-4.707031-.015625-8.519531-3.828125-8.535157-8.535156v-349.867188c.015626-4.707031 3.828126-8.519531 8.535157-8.53125h49.152343c6.605469-.015625 13.128907-1.472656 19.113282-4.269531zm0 0" fill="#02a9f4"/><path d="m357.890625 357.546875c-.351563.492187-.75.949219-1.191406 1.367187l-47.019531 47.359376-7.851563-17.238282-20.480469-44.800781 66.644532-4.4375c.484374-.101563.984374-.070313 1.453124.085937 1.324219.054688 2.613282.4375 3.753907 1.109376 1.535156.851562 2.757812 2.164062 3.5 3.753906l1.535156 3.5.425781.851562c1.257813 2.753906.96875 5.96875-.769531 8.449219zm0 0" fill="#dfc49c"/><path d="m349.445312 339.882812c-.25.769532-.625 1.488282-1.109374 2.132813-.351563.496094-.753907.953125-1.195313 1.367187l-45.3125 45.652344-20.480469-44.800781 66.644532-4.4375c.484374-.101563.984374-.070313 1.453124.085937zm0 0" fill="#ffe0b2"/><path d="m110.9375 17.066406v349.867188c-.011719 4.707031-3.824219 8.519531-8.53125 8.535156h-51.203125c-22.992187-.0625-41.882813 18.148438-42.664063 41.128906v-365.398437c-.035156-11.324219 4.449219-22.199219 12.457032-30.207031 8.007812-8.007813 18.882812-12.492188 30.207031-12.457032h51.203125c4.707031.011719 8.519531 3.824219 8.53125 8.53125zm0 0" fill="#0377bc"/><path d="m85.335938 17.066406v349.867188c-.011719 4.707031-3.824219 8.519531-8.53125 8.535156h-51.199219c-6.058594 0-20.394531 38.910156-25.60156275 41.128906l8.53515575-365.398437c-.035156-11.324219 4.449219-22.199219 12.457032-30.207031 8.007812-8.007813 18.882812-12.492188 30.207031-12.457032h25.601563c4.707031.011719 8.519531 3.824219 8.53125 8.53125zm0 0" fill="#02a9f4"/><path d="m349.890625 179.167969-21.488281-.007813c-3.144532-8.867187-7.890625-17.082031-13.992188-24.238281l10.734375-18.613281c2.3125-4.105469.890625-9.304688-3.1875-11.660156l-29.539062-17.039063c-4.0625-2.351563-9.261719-.976563-11.632813 3.074219l-10.804687 18.65625c-9.25-1.75-18.738281-1.75-27.988281 0l-10.75-18.625c-2.367188-4.070313-7.574219-5.464844-11.65625-3.121094l-29.5625 17.066406c-4.070313 2.363282-5.464844 7.570313-3.121094 11.65625l10.75 18.621094c-6.136719 7.132812-10.878906 15.355469-13.988282 24.234375l-21.5625.027344c-4.691406.027343-8.476562 3.84375-8.472656 8.535156l-.015625 34.101563c.003907 4.710937 3.796875 8.539062 8.503907 8.589843l21.488281.007813c3.148437 8.867187 7.890625 17.082031 13.996093 24.242187l-10.738281 18.613281c-2.3125 4.101563-.890625 9.300782 3.1875 11.660157l29.542969 17.035156c4.058594 2.351563 9.257812.980469 11.628906-3.070313l10.808594-18.65625c9.246094 1.746094 18.738281 1.746094 27.984375 0l10.75 18.621094c2.367187 4.070313 7.574219 5.464844 11.660156 3.125l29.558594-17.066406c4.070313-2.367188 5.464844-7.574219 3.125-11.65625l-10.753906-18.625c6.136719-7.132812 10.882812-15.351562 13.996093-24.234375l21.554688-.023437c4.691406-.027344 8.480469-3.839844 8.472656-8.53125l.015625-34.105469c0-4.710938-3.792969-8.542969-8.503906-8.59375zm0 0" fill="#f57c00"/><path d="m281.605469 204.800781c0 14.136719-11.460938 25.597657-25.601563 25.597657-14.136718 0-25.597656-11.460938-25.597656-25.597657 0-14.140625 11.460938-25.601562 25.597656-25.601562 14.140625 0 25.601563 11.460937 25.601563 25.601562zm0 0" fill="#d84315"/><path d="m233.445312 412.121094c-4.015624.003906-7.492187-2.792969-8.34375-6.71875-.855468-3.925782 1.144532-7.914063 4.796876-9.582032l62.113281-28.328124c4.273437-1.871094 9.253906.03125 11.191406 4.273437 1.933594 4.242187.105469 9.253906-4.109375 11.25l-62.109375 28.332031c-1.113281.507813-2.316406.773438-3.539063.773438zm0 0"/><path d="m124.75 461.695312c-4.015625.003907-7.492188-2.792968-8.347656-6.71875-.851563-3.925781 1.148437-7.914062 4.800781-9.578124l69.878906-31.871094c4.273438-1.875 9.253907.03125 11.191407 4.273437 1.933593 4.242188.105468 9.253907-4.105469 11.25l-69.882813 31.871094c-1.109375.507813-2.3125.773437-3.535156.773437zm0 0"/><path d="m93.027344 512.007812c-3.066406-.003906-6.105469-.554687-8.976563-1.628906-6.367187-2.359375-11.527343-7.171875-14.328125-13.359375l-14.167968-31.058593c-5.84375-12.863282-.179688-28.03125 12.667968-33.914063l38.820313-17.703125c2.058593-.941406 4.40625-1.027344 6.527343-.234375 2.121094.792969 3.839844 2.394531 4.777344 4.453125l28.332032 62.109375c1.953124 4.285156.066406 9.347656-4.222657 11.304687l-38.824219 17.710938c-3.328124 1.527344-6.945312 2.316406-10.605468 2.320312zm13.335937-78.589843-31.0625 14.164062c-4.277343 1.964844-6.160156 7.015625-4.214843 11.300781l14.167968 31.054688c1.957032 4.285156 7.015625 6.171875 11.304688 4.21875l31.050781-14.167969zm0 0"/><path d="m309.714844 414.84375c-.5.003906-1-.042969-1.492188-.132812-2.761718-.488282-5.105468-2.304688-6.269531-4.855469l-28.324219-62.109375c-1.164062-2.550782-1-5.511719.4375-7.917969s3.964844-3.957031 6.761719-4.140625l66.617187-4.386719c7.203126-.65625 14.03125 3.332031 16.996094 9.929688l1.976563 4.328125c3.054687 6.683594 1.484375 14.574218-3.902344 19.574218l-46.734375 47.183594c-1.605469 1.621094-3.785156 2.53125-6.066406 2.527344zm-15.429688-62.9375 18.070313 39.617188 38.285156-38.644532-1.730469-4.574218zm0 0"/><path d="m93.046875 512c-10.039063.007812-19.15625-5.847656-23.324219-14.980469l-14.167968-31.058593c-5.84375-12.863282-.179688-28.03125 12.667968-33.914063l209.628906-95.605469c2.058594-.941406 4.40625-1.023437 6.527344-.234375 2.117188.792969 3.835938 2.394531 4.773438 4.457031l28.328125 62.109376c1.953125 4.289062.066406 9.347656-4.222657 11.304687l-209.625 95.609375c-3.320312 1.523438-6.933593 2.3125-10.585937 2.3125zm184.121094-156.492188-201.863281 92.066407c-4.285157 1.960937-6.167969 7.019531-4.21875 11.308593l14.167968 31.054688c.9375 2.058594 2.65625 3.660156 4.777344 4.453125 2.121094.789063 4.46875.707031 6.527344-.234375l201.855468-92.066406zm0 0"/><path d="m42.671875 298.667969c-4.714844 0-8.535156-3.820313-8.535156-8.535157v-187.734374c0-4.710938 3.820312-8.53125 8.535156-8.53125 4.710937 0 8.53125 3.820312 8.53125 8.53125v187.734374c0 4.714844-3.820313 8.535157-8.53125 8.535157zm0 0"/><path d="m42.671875 76.800781c-4.714844 0-8.535156-3.820312-8.535156-8.535156v-17.066406c0-4.710938 3.820312-8.53125 8.535156-8.53125 4.710937 0 8.53125 3.820312 8.53125 8.53125v17.066406c0 4.714844-3.820313 8.535156-8.53125 8.535156zm0 0"/><path d="m256.003906 238.933594c-18.851562 0-34.132812-15.28125-34.132812-34.132813 0-18.851562 15.28125-34.132812 34.132812-34.132812 18.851563 0 34.132813 15.28125 34.132813 34.132812-.019531 18.84375-15.289063 34.113281-34.132813 34.132813zm0-51.199219c-9.425781 0-17.066406 7.640625-17.066406 17.066406s7.640625 17.066407 17.066406 17.066407c9.425782 0 17.066406-7.640626 17.066406-17.066407-.007812-9.421875-7.644531-17.058593-17.066406-17.066406zm0 0"/><path d="m288.199219 311.691406c-1.503907 0-3.003907-.199218-4.457031-.589844-4.378907-1.160156-8.109376-4.019531-10.367188-7.941406l-7.84375-13.601562c-6.324219.722656-12.707031.726562-19.03125.011718l-7.894531 13.628907c-2.296875 3.921875-6.058594 6.773437-10.457031 7.925781-4.367188 1.15625-9.019532.507812-12.90625-1.796875l-29.453126-16.980469c-8.101562-4.703125-10.9375-15.03125-6.375-23.210937l7.894532-13.691407c-1.882813-2.558593-3.617188-5.21875-5.207032-7.972656-1.585937-2.75-3.023437-5.589844-4.300781-8.5l-15.6875-.007812c-9.421875-.085938-17.015625-7.738282-17.035156-17.15625l.019531-34.074219c-.035156-4.488281 1.730469-8.800781 4.898438-11.976563 3.195312-3.226562 7.539062-5.058593 12.078125-5.089843l15.761719-.023438c2.550781-5.828125 5.746093-11.355469 9.527343-16.472656l-7.855469-13.597656c-4.695312-8.164063-1.898437-18.59375 6.253907-23.3125l29.554687-17.066407c8.164063-4.699218 18.59375-1.90625 23.316406 6.246094l7.847657 13.601563c6.320312-.722657 12.707031-.726563 19.027343-.015625l7.898438-13.625c2.296875-3.921875 6.054688-6.773438 10.449219-7.925782 4.367187-1.15625 9.015625-.511718 12.902343 1.789063l29.464844 16.992187c8.101563 4.707032 10.933594 15.039063 6.363282 23.222657l-7.886719 13.679687c3.761719 5.125 6.949219 10.644532 9.507812 16.46875l15.6875.007813h.105469c9.382812.132812 16.921875 7.773437 16.925781 17.15625l-.011719 34.074219c.03125 4.484374-1.734374 8.796874-4.902343 11.972656-3.191407 3.230468-7.535157 5.0625-12.078125 5.09375l-15.761719.019531c-2.550781 5.832031-5.742187 11.359375-9.527344 16.476563l7.851563 13.597656c4.695312 8.164062 1.898437 18.589844-6.253906 23.308594l-29.554688 17.070312c-2.578125 1.492188-5.507812 2.28125-8.488281 2.285156zm-18.183594-39.957031c3.050781 0 5.867187 1.625 7.394531 4.265625l10.75 18.625 29.558594-17.070312-10.753906-18.621094c-1.804688-3.136719-1.441406-7.070313.914062-9.820313 5.433594-6.324219 9.640625-13.609375 12.40625-21.476562 1.191406-3.429688 4.421875-5.734375 8.050782-5.742188l21.558593-.027343-.03125-34.164063-21.460937-.011719c-3.625-.003906-6.851563-2.292968-8.050782-5.710937-2.796874-7.859375-7.003906-15.144531-12.414062-21.492188-2.363281-2.75-2.730469-6.691406-.921875-9.828125l10.734375-18.613281-29.59375-17.046875-10.792969 18.613281c-1.820312 3.140625-5.429687 4.785157-8.992187 4.097657-8.199219-1.539063-16.613282-1.535157-24.8125.011718-3.558594.675782-7.15625-.980468-8.960938-4.121094l-10.75-18.625-29.558594 17.070313 10.75 18.621094c1.808594 3.132812 1.445313 7.070312-.910156 9.820312-5.433594 6.324219-9.640625 13.605469-12.410156 21.472657-1.1875 3.433593-4.417969 5.738281-8.046875 5.742187l-21.558594.03125.03125 34.113281 21.464844.0625c3.621094 0 6.851563 2.292969 8.050781 5.710938 2.792969 7.859375 7 15.144531 12.410156 21.492187 2.363282 2.746094 2.734376 6.6875.921876 9.828125l-10.738282 18.613282 29.601563 17.039062 10.789062-18.605469c1.816407-3.144531 5.429688-4.792969 8.992188-4.101562 8.203125 1.53125 16.613281 1.527343 24.8125-.007813.519531-.097656 1.042969-.144531 1.566406-.144531zm0 0"/><path d="m460.804688 512h-51.199219c-9.421875-.007812-17.058594-7.644531-17.066407-17.066406v-349.867188c.007813-9.421875 7.644532-17.058594 17.066407-17.066406h49.140625c10.0625-.046875 19.679687-4.160156 26.667968-11.402344 6.3125-6.359375 9.75-15.023437 9.507813-23.980468-.605469-18.382813-15.722656-32.953126-34.117187-32.882813h-145.066407c-4.714843 0-8.535156-3.820313-8.535156-8.535156 0-4.710938 3.820313-8.53125 8.535156-8.53125h145.066407c27.585937-.074219 50.238281 21.777343 51.167968 49.34375.429688 13.585937-4.730468 26.757812-14.277344 36.433593-10.207031 10.570313-24.253906 16.5625-38.949218 16.621094h-49.140625v349.867188h51.199219c18.84375-.019532 34.113281-15.289063 34.132812-34.132813 0-4.714843 3.820312-8.535156 8.535156-8.535156 4.710938 0 8.53125 3.820313 8.53125 8.535156-.03125 28.261719-22.933594 51.167969-51.199218 51.199219zm0 0"/><path d="m196.269531 469.332031h-6.058593c-4.710938 0-8.53125-3.820312-8.53125-8.53125 0-4.714843 3.820312-8.535156 8.53125-8.535156h6.058593c4.714844 0 8.535157 3.820313 8.535157 8.535156 0 4.710938-3.820313 8.53125-8.535157 8.53125zm0 0"/><path d="m62.640625 469.332031h-9.386719c-28.652344.117188-52.222656-22.535156-53.24999975-51.167969v-1.566406c.42968775-13.023437 5.75781275-25.40625 14.92187475-34.671875 9.625-9.609375 22.675781-15.003906 36.277344-14.992187h51.203125v-349.867188h-51.203125c-9.0625-.035156-17.765625 3.550782-24.171875 9.957032-6.410156 6.410156-9.996094 15.113281-9.960938 24.175781 0 3.050781-1.625 5.867187-4.265624 7.390625-2.640626 1.523437-5.894532 1.523437-8.535157 0-2.636719-1.523438-4.26562475-4.339844-4.26562475-7.390625-.03515625-13.589844 5.34765575-26.632813 14.95703175-36.242188 9.609374-9.609375 22.652343-14.9921872 36.242187-14.957031h51.203125c9.421875.0078125 17.054688 7.644531 17.066406 17.066406v349.867188c-.011718 9.421875-7.644531 17.058594-17.066406 17.066406h-51.203125c-18.40625-.058594-33.527344 14.523438-34.132813 32.921875v1.210937c.882813 19.273438 16.890626 34.375 36.183594 34.132813h9.386719c4.710937 0 8.53125 3.820313 8.53125 8.535156 0 4.710938-3.820313 8.53125-8.53125 8.53125zm0 0"/><path d="m8.539062 426.667969c-4.714843 0-8.53515575-3.820313-8.53515575-8.535157v-366.933593c0-4.710938 3.82031275-8.53125 8.53515575-8.53125 4.710938 0 8.53125 3.820312 8.53125 8.53125v366.933593c0 4.714844-3.820312 8.535157-8.53125 8.535157zm0 0"/><path d="m401.070312 469.332031h-210.859374c-4.710938 0-8.53125-3.820312-8.53125-8.53125 0-4.714843 3.820312-8.535156 8.53125-8.535156h210.859374c4.714844 0 8.535157 3.820313 8.535157 8.535156 0 4.710938-3.820313 8.53125-8.535157 8.53125zm0 0"/><path d="m62.640625 469.332031h-11.4375c-4.710937 0-8.53125-3.820312-8.53125-8.53125 0-4.714843 3.820313-8.535156 8.53125-8.535156h11.4375c4.710937 0 8.53125 3.820313 8.53125 8.535156 0 4.710938-3.820313 8.53125-8.53125 8.53125zm0 0"/><path d="m460.804688 59.734375h-349.867188c-4.710938 0-8.53125-3.820313-8.53125-8.535156 0-4.710938 3.820312-8.53125 8.53125-8.53125h349.867188c4.710937 0 8.53125 3.820312 8.53125 8.53125 0 4.714843-3.820313 8.535156-8.53125 8.535156zm0 0"/><path d="m503.472656 469.332031c-4.714844 0-8.535156-3.820312-8.535156-8.53125v-366.933593c0-4.714844 3.820312-8.535157 8.535156-8.535157 4.710938 0 8.53125 3.820313 8.53125 8.535157v366.933593c0 4.710938-3.820312 8.53125-8.53125 8.53125zm0 0"/></svg>